<svg xmlns="http://www.w3.org/2000/svg" width="24" height="24" viewBox="0 0 24 24" fill="none">
  <path d="M7 2L17 2C19.7614 2 22 4.2386 22 7L22 17C22 19.7614 19.7614 22 17 22L7 22C4.2386 22 2 19.7614 2 17L2 7C2 4.2386 4.2386 2 7 2ZM4 8L4 10L7.2679 10C7.6252 10.6188 8.2855 11 9 11L15 11C15.7145 11 16.3748 10.6188 16.7321 10L20 10L20 8L16.7321 8C16.3748 7.3812 15.7145 7 15 7L9 7C8.2855 7 7.6252 7.3812 7.2679 8L4 8ZM13 14C13 13.4477 12.5523 13 12 13C11.4477 13 11 13.4477 11 14C11 14.5523 11.4477 15 12 15C12.5523 15 13 14.5523 13 14Z" fill="currentColor"/>
</svg>
